<svg id="Group_11" data-name="Group 11" xmlns="http://www.w3.org/2000/svg" width="38.07" height="43" viewBox="0 0 38.07 43">
  <path id="Path_11" data-name="Path 11" d="M-4353.608,780.454l-15.933-9.2a3.1,3.1,0,0,0-3.1,0l-15.933,9.2a3.1,3.1,0,0,0-1.551,2.686v18.4a3.1,3.1,0,0,0,1.551,2.686l15.933,9.2a3.1,3.1,0,0,0,3.1,0l15.933-9.2a3.1,3.1,0,0,0,1.551-2.686v-18.4A3.1,3.1,0,0,0-4353.608,780.454Zm-6.419,22.938a3.981,3.981,0,0,1-3.981-3.98V792.4a8.009,8.009,0,0,0-1.956-5.611,6.559,6.559,0,0,0-5.083-2.148,6.672,6.672,0,0,0-5.094,2.125,7.691,7.691,0,0,0-1.99,5.475,7.856,7.856,0,0,0,2.046,5.6,6.839,6.839,0,0,0,5.218,2.182,8.139,8.139,0,0,0,2.8-.495,10.57,10.57,0,0,0,2.732-1.529V799.7a3.769,3.769,0,0,1-2.815,3.672l-.03.008a12.983,12.983,0,0,1-3.136.371,10.451,10.451,0,0,1-3.126-.484,10.192,10.192,0,0,1-2.811-1.36,11.041,11.041,0,0,1-3.644-4.1,11.851,11.851,0,0,1-1.259-5.476,11.272,11.272,0,0,1,3.125-8.174,10.58,10.58,0,0,1,7.939-3.227,10.97,10.97,0,0,1,5.8,1.6,10.687,10.687,0,0,1,4.048,4.385,9.962,9.962,0,0,1,.933,2.755,26.191,26.191,0,0,1,.281,4.464Z" transform="translate(4390.127 -770.839)" fill="#ffbc00"/>
  <path id="Path_12" data-name="Path 12" d="M-4335.935,1041.305a.146.146,0,0,0-.136-.258c-5.6,2.711-15.209,5.578-17.506,5.578-2.363,0-10.987-2.735-15.983-5.087a.127.127,0,0,0-.118.225l14.456,8.535a3.723,3.723,0,0,0,3.723,0Z" transform="translate(4372.25 -1007.797)" fill="#f39c12"/>
</svg>
